<svg width="608" height="610" viewBox="0 0 608 610" fill="none" xmlns="http://www.w3.org/2000/svg">
<path d="M303.55 499.744C411.655 499.744 499.291 412.108 499.291 304.003C499.291 195.898 411.655 108.262 303.55 108.262C195.445 108.262 107.809 195.898 107.809 304.003C107.809 412.108 195.445 499.744 303.55 499.744Z" stroke="#00BFC4" stroke-width="30.7678" stroke-miterlimit="10"/>
<path d="M196.537 56.1875C202.67 45.2805 209.456 34.8041 206.761 27.5389C205.457 24.014 202.997 22.2116 199.256 23.6018C195.621 24.9491 194.581 28.2956 196.076 32.4911L188.7 35.2224C185.612 26.0687 189.869 19.7386 196.968 17.1056C205.482 13.9498 211.634 17.4009 214.186 24.2908C217.582 33.4569 211.4 43.8902 207.081 51.5306L223.076 45.6004L225.407 51.8874L198.623 61.8224L196.531 56.1813L196.537 56.1875Z" fill="#174483"/>
<path d="M245.595 39.0919L225.885 43.681L224.445 37.4863L236.73 6.84461L245.909 4.70996L251.882 30.3934L256.84 29.243L258.44 36.1144L253.481 37.2648L255.345 45.262L247.459 47.0953L245.595 39.098V39.0919ZM244.506 32.1035L240.495 14.8664L232.959 34.7857L244.506 32.0974V32.1035Z" fill="#174483"/>
<path d="M275.131 1.27101L284.322 1.07415L297.788 30.8054L309.987 0.526639L319.122 0.335938L319.971 40.6912L311.875 40.8634L311.322 14.6141L301.067 41.091L294.94 41.2202L283.516 15.2046L284.07 41.454L275.974 41.6262L275.125 1.27101H275.131Z" fill="#174483"/>
<path d="M328.077 1.36328L357.439 5.17733L356.596 11.6551L345.929 10.2709L341.574 43.8162L333.546 42.7766L337.901 9.23131L327.234 7.84717L328.077 1.36942V1.36328Z" fill="#174483"/>
<path d="M398.289 15.2969C406.809 18.0775 412.248 24.8998 412.266 33.6044L403.414 30.7193C402.799 26.4438 400.092 23.5525 395.97 22.2053C389.265 20.0153 382.885 23.3495 380.339 31.1561C377.81 38.9072 380.978 45.4157 387.684 47.6057C391.805 48.953 395.699 48.2147 398.732 45.0651L407.585 47.9502C402.417 55.0247 394.02 57.2701 385.5 54.4895C374.451 50.8846 368.675 40.0576 372.421 28.5662C376.168 17.0748 387.235 11.6859 398.289 15.2908V15.2969Z" fill="#174483"/>
<path d="M423.65 70.5019C413.518 65.2914 409.156 53.4248 414.711 42.6224C420.242 31.8753 432.434 28.5226 442.56 33.7331C452.79 38.999 457.004 50.7857 451.474 61.5327C445.919 72.329 433.831 75.737 423.65 70.4958V70.5019ZM426.959 64.0734C433.437 67.4076 440.321 65.0269 444.074 57.7248C447.832 50.4227 445.71 43.5451 439.232 40.2109C432.699 36.852 425.877 39.1282 422.118 46.4302C418.359 53.7323 420.426 60.7145 426.959 64.0734Z" fill="#174483"/>
<path d="M439.052 86.6878C446.298 85.8634 453.564 85.5005 456.08 81.7479C457.298 79.927 457.316 78.1492 455.384 76.8573C453.508 75.6024 451.57 76.2483 450.1 78.3829L446.292 75.83C449.565 71.247 454.006 71.0993 457.679 73.56C462.077 76.5067 462.539 80.5976 460.158 84.1532C456.984 88.8839 449.94 89.5237 444.853 90.0896L453.114 95.6262L450.937 98.8743L437.102 89.5975L439.052 86.6878Z" fill="#174483"/>
<path d="M470.017 101.162C462.825 95.2504 461.712 85.949 468.097 78.1794C474.526 70.3605 483.692 69.5916 491.019 75.6141C498.167 81.489 499.213 90.5074 493.153 97.8771C492.495 98.683 491.787 99.4458 490.994 100.141L472.902 85.2661C470.201 89.1848 471.013 93.3003 474.144 95.8655C476.827 98.0678 479.398 97.9387 481.563 96.9482L488.312 102.491C483.224 105.948 476.144 106.188 470.023 101.156L470.017 101.162ZM476.396 81.1076L488.146 90.7658C490.736 87.4315 489.837 83.2484 486.62 80.6031C483.624 78.1425 479.681 78.1178 476.396 81.1076Z" fill="#174483"/>
<path d="M517.895 101.366L523.382 107.32L499.821 129.024L494.34 123.069L517.901 101.366H517.895ZM523.604 94.9308C525.56 93.1284 528.5 93.2514 530.463 95.3738C532.382 97.4592 532.302 100.443 530.346 102.245C528.39 104.048 525.406 103.882 523.493 101.802C521.537 99.6738 521.653 96.7333 523.61 94.9308H523.604Z" fill="#00BFC4"/>
<path d="M531.812 140.564C535.915 137.457 536.414 133.52 533.83 130.112C531.172 126.612 527.248 126.027 523.15 129.14L509.051 139.832L504.16 133.379L529.69 114.025L534.58 120.479L531.4 122.89C534.82 122.908 538.302 124.625 540.781 127.898C545.291 133.84 544.632 141.013 537.582 146.359L522.609 157.715L517.719 151.262L531.818 140.57L531.812 140.564Z" fill="#00BFC4"/>
<path d="M537.245 168.905C548.798 173.716 559.988 179.228 566.89 175.703C570.237 173.993 571.738 171.341 569.923 167.786C568.157 164.334 564.712 163.695 560.726 165.669L557.146 158.669C565.875 154.529 572.654 158.011 576.105 164.759C580.239 172.842 577.526 179.357 570.987 182.697C562.289 187.145 551.197 182.23 543.101 178.834L550.865 194.023L544.891 197.074L531.887 171.637L537.239 168.899L537.245 168.905Z" fill="#00BFC4"/>
<path d="M591.194 199.793C595.248 210.995 587.915 217.583 576.436 221.73C564.852 225.919 554.948 225.562 550.9 214.366C546.852 203.164 554.235 196.557 565.818 192.368C577.291 188.215 587.14 188.59 591.194 199.793ZM584.126 202.352C581.807 195.935 575.329 197.418 568.531 199.873C561.463 202.432 555.649 205.391 557.969 211.807C560.288 218.223 566.655 216.784 573.723 214.225C580.521 211.764 586.445 208.762 584.126 202.346V202.352Z" fill="#00BFC4"/>
<path d="M563.337 230.773C573.334 238.296 582.814 246.411 590.368 244.707C594.035 243.882 596.145 241.686 595.271 237.792C594.416 234.015 591.242 232.538 586.886 233.461L585.158 225.79C594.644 223.944 600.346 229.001 602.013 236.389C604.013 245.248 599.774 250.883 592.607 252.501C583.072 254.654 573.555 247.136 566.549 241.84L570.301 258.48L563.756 259.957L557.469 232.096L563.337 230.773Z" fill="#00BFC4"/>
<path d="M570.098 261.728C579.148 270.371 587.612 279.543 595.32 278.731C599.061 278.338 601.417 276.406 600.998 272.438C600.592 268.587 597.609 266.748 593.173 267.154L592.349 259.335C601.983 258.615 607.058 264.299 607.851 271.835C608.799 280.866 603.927 285.972 596.625 286.741C586.905 287.762 578.329 279.187 571.993 273.109L573.777 290.075L567.109 290.776L564.125 262.368L570.104 261.74L570.098 261.728Z" fill="#00BFC4"/>
<path d="M580.432 312.455C580.518 309.508 582.659 307.491 585.323 307.564C587.98 307.644 589.998 309.785 589.912 312.732C589.826 315.562 587.685 317.586 585.027 317.506C582.37 317.426 580.352 315.285 580.432 312.449V312.455Z" fill="#00BFC4"/>
<path d="M571.691 334.497C578.12 345.232 583.841 356.317 591.488 357.585C595.197 358.2 597.978 356.963 598.63 353.026C599.263 349.206 596.877 346.641 592.49 345.853L593.776 338.096C603.256 339.96 606.639 346.788 605.397 354.263C603.914 363.22 597.861 366.843 590.614 365.643C580.974 364.044 574.983 353.5 570.492 345.958L567.705 362.783L561.086 361.688L565.755 333.507L571.685 334.491L571.691 334.497Z" fill="#174483"/>
<path d="M562.183 385.599L567.984 366.209L574.081 368.03L594.591 393.898L591.89 402.929L566.625 395.374L565.167 400.246L558.406 398.222L559.864 393.35L551.996 390.994L554.315 383.237L562.183 385.587V385.599ZM568.79 388.121L585.744 393.19L572.186 376.765L568.79 388.121Z" fill="#174483"/>
<path d="M580.348 430.045L575.938 438.116L543.444 434.991L563.622 460.65L559.242 468.666L523.82 449.313L527.702 442.207L550.74 454.794L532.888 432.715L535.828 427.339L564.077 430.39L541.039 417.804L544.921 410.698L580.342 430.052L580.348 430.045Z" fill="#174483"/>
<path d="M553.869 475.925L535.906 499.462L530.714 495.5L537.241 486.949L510.352 466.427L515.261 459.992L542.15 480.514L548.677 471.963L553.869 475.925Z" fill="#174483"/>
<path d="M506.779 529.808C500.129 535.818 491.504 537.135 483.944 532.822L490.852 526.584C494.863 528.178 498.72 527.273 501.938 524.364C507.173 519.633 507.456 512.442 501.956 506.351C496.493 500.298 489.271 499.812 484.036 504.537C480.819 507.446 479.521 511.187 480.739 515.382L473.83 521.62C470.268 513.617 472.495 505.213 479.145 499.209C487.77 491.421 500.037 491.796 508.132 500.766C516.234 509.735 515.404 522.014 506.779 529.808Z" fill="#174483"/>
<path d="M446.274 524.37C455.828 518.169 468.297 520.273 474.91 530.46C481.493 540.598 478.343 552.846 468.79 559.047C459.137 565.316 446.816 563.113 440.233 552.975C433.62 542.788 436.671 530.602 446.274 524.37ZM450.211 530.429C444.103 534.397 442.749 541.552 447.216 548.435C451.688 555.325 458.707 556.9 464.822 552.932C470.98 548.934 472.401 541.878 467.928 534.988C463.456 528.098 456.369 526.425 450.211 530.423V530.429Z" fill="#174483"/>
<path d="M424.598 529.697C421.712 536.396 418.421 542.886 420.427 546.928C421.399 548.89 422.937 549.782 425.016 548.749C427.04 547.746 427.44 545.741 426.314 543.403L430.423 541.367C432.773 546.485 430.694 550.416 426.738 552.378C421.995 554.728 418.218 553.104 416.317 549.272C413.783 544.166 416.73 537.737 418.766 533.043L409.858 537.46L408.117 533.96L423.035 526.56L424.591 529.697H424.598Z" fill="#174483"/>
<path d="M396.651 549.382C405.356 546.079 413.981 549.739 417.549 559.145C421.135 568.607 417.253 576.948 408.383 580.313C399.733 583.592 391.385 580.018 388.002 571.098C387.633 570.126 387.319 569.129 387.11 568.096L409.01 559.791C406.949 555.503 402.981 554.162 399.192 555.596C395.95 556.826 394.781 559.127 394.566 561.495L386.402 564.589C385.935 558.462 389.245 552.194 396.651 549.382ZM410.88 564.891L396.657 570.286C398.263 574.192 402.342 575.49 406.236 574.014C409.859 572.642 411.84 569.228 410.88 564.891Z" fill="#174483"/>
<path d="M372.646 590.796L364.747 592.573L357.703 561.323L365.602 559.545L372.646 590.796ZM375.377 598.953C375.961 601.549 374.387 604.034 371.569 604.674C368.807 605.295 366.26 603.739 365.676 601.143C365.091 598.547 366.722 596.049 369.484 595.422C372.301 594.788 374.793 596.357 375.377 598.953Z" fill="#00BFC4"/>
<path d="M331.721 583.284C332.367 588.39 335.529 590.789 339.774 590.254C344.136 589.701 346.596 586.594 345.95 581.488L343.73 563.931L351.764 562.916L355.787 594.702L347.753 595.717L347.254 591.761C345.532 594.72 342.309 596.873 338.23 597.39C330.829 598.325 324.942 594.173 323.829 585.394L321.473 566.749L329.507 565.733L331.728 583.29L331.721 583.284Z" fill="#00BFC4"/>
<path d="M304.445 573.854C294.523 581.482 284.176 588.446 283.8 596.184C283.622 599.937 285.172 602.564 289.158 602.755C293.028 602.939 295.298 600.269 295.569 595.828L303.424 596.209C302.668 605.843 296.276 609.989 288.709 609.626C279.642 609.189 275.336 603.597 275.692 596.264C276.166 586.502 285.947 579.335 292.917 573.995L275.877 573.171L276.203 566.472L304.735 567.85L304.445 573.854Z" fill="#00BFC4"/>
<path d="M250.81 605.307C239.072 603.265 236.993 593.625 239.091 581.605C241.207 569.474 246.43 561.046 258.161 563.094C269.899 565.137 271.965 574.832 269.849 586.963C267.758 598.983 262.541 607.35 250.804 605.307H250.81ZM252.102 597.901C258.825 599.069 260.751 592.715 261.994 585.597C263.285 578.191 263.599 571.67 256.875 570.501C250.152 569.332 248.245 575.57 246.953 582.977C245.71 590.1 245.378 596.732 252.102 597.901Z" fill="#00BFC4"/>
<path d="M237.751 565.758C226.259 570.704 214.51 574.905 212.24 582.318C211.138 585.911 212 588.833 215.814 590.002C219.517 591.134 222.378 589.11 223.737 584.871L231.255 587.172C228.148 596.32 220.932 598.768 213.685 596.547C205.005 593.89 202.212 587.412 204.365 580.387C207.226 571.042 218.477 566.508 226.549 563.051L210.24 558.056L212.203 551.64L239.516 560.006L237.757 565.758H237.751Z" fill="#00BFC4"/>
<path d="M207.514 556.266C195.519 559.821 183.35 562.614 180.225 569.701C178.706 573.14 179.216 576.148 182.864 577.754C186.408 579.316 189.49 577.643 191.335 573.589L198.533 576.763C194.374 585.48 186.912 587.061 179.979 584.004C171.674 580.337 169.663 573.577 172.628 566.853C176.571 557.908 188.278 554.728 196.7 552.249L181.093 545.365L183.799 539.226L209.938 550.754L207.508 556.26L207.514 556.266Z" fill="#00BFC4"/>
<path d="M158.409 540.013C160.919 541.557 161.601 544.424 160.211 546.688C158.815 548.952 155.954 549.634 153.444 548.09C151.033 546.608 150.35 543.741 151.74 541.477C153.137 539.213 155.997 538.531 158.409 540.013Z" fill="#00BFC4"/>
<path d="M143.666 521.442C131.153 521.645 118.69 521.066 113.775 527.058C111.388 529.962 111.074 532.995 114.156 535.523C117.152 537.984 120.566 537.19 123.433 533.788L129.511 538.777C123.162 546.061 115.552 545.575 109.696 540.77C102.677 535.012 102.56 527.956 107.217 522.278C113.418 514.724 125.543 514.804 134.327 514.675L121.138 503.854L125.395 498.668L147.48 516.791L143.666 521.442Z" fill="#174483"/>
<path d="M104.106 487.681L118.034 502.365L113.42 506.739L80.773 511.642L74.2891 504.801L93.4209 486.653L89.9206 482.962L95.0388 478.109L98.5391 481.8L104.5 476.152L110.074 482.027L104.113 487.674L104.106 487.681ZM98.6314 492.159L85.7928 504.333L106.789 500.759L98.6314 492.159Z" fill="#174483"/>
<path d="M56.511 481.351L51.7003 473.513L70.5492 446.864L38.2588 451.638L33.4728 443.856L67.867 422.725L72.1055 429.621L49.7379 443.364L77.7713 438.836L80.9825 444.059L64.3052 467.066L86.6728 453.323L90.9113 460.219L56.5171 481.351H56.511Z" fill="#174483"/>
<path d="M29.8218 435.563L18.3242 408.28L24.3468 405.746L28.5238 415.656L59.7006 402.522L62.8442 409.984L31.6734 423.118L35.8504 433.029L29.8279 435.563H29.8218Z" fill="#174483"/>
<path d="M6.52031 367.882C4.63789 359.116 7.79372 350.984 15.305 346.591L17.2612 355.696C13.8778 358.378 12.7397 362.174 13.6501 366.412C15.1327 373.308 21.2229 377.147 29.2509 375.418C37.2235 373.702 41.2529 367.692 39.7703 360.789C38.8599 356.551 36.2639 353.561 32.0192 352.522L30.0629 343.417C38.7738 344.321 44.9439 350.448 46.8325 359.208C49.2809 370.571 42.8277 381.01 31.0103 383.551C19.1928 386.091 8.96869 379.245 6.52031 367.882Z" fill="#174483"/>
<path d="M41.4382 318.17C42.0534 329.545 34.0069 339.301 21.8819 339.953C9.81224 340.605 0.769221 331.765 0.15405 320.391C-0.461121 308.899 7.59148 299.321 19.655 298.669C31.78 298.017 40.8169 306.74 41.432 318.17H41.4382ZM34.2222 318.558C33.8285 311.28 28.3043 306.543 20.1041 306.986C11.9038 307.429 7.03783 312.726 7.43154 320.003C7.82525 327.336 13.2326 332.085 21.4328 331.642C29.6331 331.199 34.6159 325.897 34.2222 318.564V318.558Z" fill="#174483"/>
<path d="M47.625 296.67C43.2511 290.832 39.2587 284.748 34.7495 284.477C32.5595 284.348 31.0215 285.234 30.8801 287.553C30.7447 289.811 32.2826 291.152 34.8725 291.343L34.5957 295.919C28.9853 295.415 26.6108 291.656 26.8753 287.246C27.1952 281.961 30.4863 279.494 34.7556 279.753C40.446 280.097 44.5553 285.849 47.6189 289.952L48.2156 280.023L52.1219 280.257L51.1192 296.879L47.6189 296.67H47.625Z" fill="#174483"/>
<path d="M44.4329 262.615C42.9749 271.811 35.5252 277.483 25.5841 275.909C15.5875 274.328 10.2786 266.81 11.7612 257.447C13.2068 248.306 20.4535 242.837 29.8779 244.332C30.9053 244.492 31.9265 244.713 32.9292 245.052L29.2689 268.182C34.0181 268.526 37.1493 265.74 37.7829 261.741C38.3242 258.315 36.9094 256.155 34.9593 254.796L36.3249 246.171C41.8799 248.804 45.6755 254.796 44.4391 262.621L44.4329 262.615ZM23.9046 267.272L26.2792 252.249C22.0899 251.702 18.9402 254.599 18.2881 258.714C17.6853 262.541 19.6599 265.955 23.8985 267.272H23.9046Z" fill="#174483"/>
<path d="M11.9509 219.534C9.41021 218.752 8.02607 216.156 8.87501 213.388C9.70549 210.681 12.32 209.242 14.8668 210.023C17.4074 210.804 18.7731 213.456 17.9426 216.169C17.0937 218.931 14.4977 220.315 11.9509 219.534ZM20.3849 221.213L22.7594 213.474L53.3888 222.862L51.0142 230.601L20.3849 221.213Z" fill="#00BFC4"/>
<path d="M47.2204 189.433C42.4652 187.459 38.8172 189.009 37.1747 192.965C35.4891 197.025 36.9655 200.703 41.7147 202.678L58.0536 209.47L54.947 216.944L25.3634 204.653L28.47 197.178L32.1549 198.71C30.4447 195.745 30.174 191.876 31.7489 188.086C34.6094 181.196 41.1364 178.151 49.3059 181.547L66.6599 188.757L63.5532 196.231L47.2143 189.44L47.2204 189.433Z" fill="#00BFC4"/>
<path d="M68.967 170.467C67.306 158.066 66.4263 145.621 59.9055 141.437C56.7435 139.407 53.6922 139.444 51.5391 142.803C49.4476 146.063 50.6287 149.361 54.3443 151.815L50.0996 158.435C42.127 152.978 41.721 145.368 45.8119 138.989C50.7148 131.349 57.7032 130.407 63.8856 134.369C72.1105 139.647 73.4454 151.698 74.5958 160.403L83.8049 146.045L89.4522 149.668L74.0298 173.709L68.967 170.461V170.467Z" fill="#00BFC4"/>
<path d="M68.476 108.286C76.1102 99.1382 85.4916 102.153 94.8606 109.971C104.316 117.864 109.01 126.593 101.375 135.741C93.741 144.889 84.3105 141.837 74.8553 133.945C65.4862 126.126 60.8417 117.433 68.476 108.286ZM74.2462 113.103C69.8724 118.344 74.4185 123.185 79.9673 127.818C85.7377 132.634 91.2311 136.159 95.605 130.924C99.9789 125.683 95.525 120.915 89.7486 116.098C84.1997 111.466 78.6201 107.868 74.2462 113.103Z" fill="#00BFC4"/>
<path d="M109.297 116.69C110.73 104.257 112.938 91.9721 107.642 86.3187C105.07 83.575 102.111 82.8614 99.1955 85.5866C96.3657 88.2318 96.7041 91.726 99.6999 95.011L93.9604 100.388C87.5749 93.1409 89.0452 85.6604 94.5756 80.4807C101.207 74.2736 108.214 75.0795 113.234 80.4438C119.914 87.5797 118.247 99.594 117.22 108.317L129.677 96.6597L134.26 101.556L113.4 121.076L109.29 116.683L109.297 116.69Z" fill="#00BFC4"/>
<path d="M132.578 95.1949C135.451 83.0145 139.074 71.074 134.473 64.8362C132.24 61.8095 129.379 60.7576 126.168 63.126C123.049 65.4267 122.975 68.9271 125.571 72.5504L119.241 77.2196C113.741 69.2777 116.079 62.0187 122.175 57.5218C129.484 52.1329 136.349 53.7508 140.71 59.6564C146.512 67.5245 143.454 79.2619 141.424 87.8005L155.155 77.6748L159.135 83.076L136.146 100.036L132.578 95.1949Z" fill="#00BFC4"/>
<path d="M171.08 60.6355C168.49 62.0504 165.666 61.22 164.393 58.8823C163.119 56.5447 163.95 53.721 166.54 52.3123C169.025 50.9527 171.855 51.7832 173.128 54.1209C174.402 56.4585 173.571 59.2822 171.086 60.6355H171.08Z" fill="#00BFC4"/>
</svg>
