<svg width="959" height="960" viewBox="0 0 959 960" fill="none" xmlns="http://www.w3.org/2000/svg">
<path d="M479.546 850.428C684.127 850.428 849.972 684.583 849.972 480.003C849.972 275.422 684.127 109.577 479.546 109.577C274.966 109.577 109.121 275.422 109.121 480.003C109.121 684.583 274.966 850.428 479.546 850.428Z" stroke="#00BFC4" stroke-width="30.7678" stroke-miterlimit="10"/>
<path d="M397.915 6.05664L399.705 14.9213L381.269 18.643L382.911 26.8002C384.105 24.7763 386.805 22.9369 390.232 22.2479C399.632 20.3532 404.676 26.7756 406.085 33.7517C407.918 42.85 403.796 49.8384 394.218 51.77C384.523 53.7263 377.824 49.4816 375.972 42.1057L385.839 40.1125C386.707 42.2718 388.823 43.9389 392.133 43.2683C395.977 42.4932 397.066 39.3805 396.316 35.6587C395.528 31.7585 393.16 30.0852 389.555 30.8111C386.719 31.3832 385.372 33.2534 385.249 35.3696L375.498 37.3381L370.312 11.6301L397.909 6.06279L397.915 6.05664Z" fill="#174483"/>
<path d="M432.514 38.0267L412.386 40.2844L411.457 32.0165L427.353 2.80817L438.795 1.52246L441.766 28.0056L446.682 27.4519L447.678 36.3227L442.763 36.8764L443.637 44.6644L433.394 45.8148L432.52 38.0267H432.514ZM432.237 29.076L430.533 13.8566L422.173 30.2017L432.237 29.0698V29.076Z" fill="#174483"/>
<path d="M465.765 0.673828L477.939 0.9322L489.197 30.4727L501.568 1.43049L513.681 1.68271L512.789 43.9942L502.484 43.7789L503.02 18.4031L493.023 43.5759L484.706 43.4036L475.718 17.7694L475.183 43.2068L464.879 42.9915L465.771 0.679979L465.765 0.673828Z" fill="#174483"/>
<path d="M521.012 2.58135L553.512 6.50614L552.521 14.7064L541.387 13.3591L537.302 47.1751L527.066 45.9386L531.15 12.1227L520.016 10.7754L521.006 2.5752L521.012 2.58135Z" fill="#174483"/>
<path d="M593.013 14.1463C602.801 16.5147 608.848 23.8045 609.039 33.2781L598.021 30.6145C597.172 26.6897 594.49 24.1798 590.682 23.257C584.53 21.7683 579.203 25.3178 577.45 32.583C575.696 39.8482 578.803 45.4401 584.955 46.9288C588.763 47.8516 592.294 46.8427 594.847 43.7361L605.864 46.3997C601.367 54.7415 592.663 58.4017 582.882 56.0333C570.75 53.099 564.285 42.4196 567.256 30.11C570.234 17.8066 580.882 11.2058 593.013 14.1402V14.1463Z" fill="#174483"/>
<path d="M625.325 68.7853C614.012 64.7866 607.799 53.0615 612.044 41.0718C616.289 29.0821 628.469 23.9208 639.776 27.9194C651.144 31.9365 657.204 43.5448 652.965 55.5406C648.727 67.5303 636.638 72.7839 625.325 68.7853ZM628.463 59.9206C634.83 62.1722 640.606 59.0348 643.079 52.0464C645.589 44.9412 643.03 38.9864 636.663 36.7348C630.185 34.4464 624.501 37.4853 621.991 44.5906C619.518 51.5789 621.985 57.6322 628.463 59.9206Z" fill="#174483"/>
<path d="M644.885 82.6452C651.682 80.7197 658.787 78.9665 660.528 75.0109C661.279 73.3069 660.99 71.8736 659.31 71.1354C657.668 70.4156 656.136 71.2769 655.164 73.4976L649.855 71.1661C652.519 65.5435 657.293 64.7253 661.574 66.6016C666.914 68.9515 667.923 73.1162 666.188 77.0779C663.924 82.2269 657.514 84.3246 652.519 85.5427L661.205 89.3629L659.236 93.8352L643.082 86.7361L644.878 82.6514L644.885 82.6452Z" fill="#174483"/>
<path d="M679.945 92.5064C671.16 87.9665 667.888 78.8066 672.791 69.3268C677.694 59.847 686.952 57.171 695.841 61.7663C704.57 66.2817 707.739 75.2509 703.033 84.3493C702.59 85.2044 702.067 86.0902 701.488 86.9453L680.763 76.229C679.065 80.3014 680.53 83.3711 683.476 84.8968C686.048 86.2255 688.158 85.6904 689.739 84.4723L699.483 89.5106C695.017 94.598 687.389 96.3574 679.945 92.5064ZM683.445 71.1723L694.906 77.0964C696.598 73.8298 694.992 70.6248 691.941 69.05C688.939 67.4997 685.697 68.1272 683.445 71.1723Z" fill="#174483"/>
<path d="M720.1 116.104C712.607 111.152 710.331 103.653 713.517 97.9566L722.019 103.573C720.924 105.671 721.822 108.138 724.185 109.7C726.399 111.164 728.22 110.918 729.051 109.663C732.04 105.136 714.588 98.3011 721.404 87.9908C724.56 83.2109 731.228 81.9806 738.573 86.8343C745.82 91.6203 747.186 98.3011 744.079 104.201L736.131 98.9532C737.14 96.8739 736.513 94.6531 734.101 93.0598C732.09 91.7311 730.453 91.8049 729.555 93.1644C726.596 97.6429 743.882 104.508 737.122 115.071C733.898 119.949 727.15 120.767 720.106 116.11L720.1 116.104Z" fill="#00BFC4"/>
<path d="M756.002 99.4765L764.27 105.634L744.166 132.61L735.898 126.452L756.002 99.4765ZM760.634 91.6515C762.511 89.1354 765.968 88.631 768.915 90.8333C771.812 92.9925 772.323 96.456 770.446 98.9659C768.607 101.433 765.15 101.937 762.246 99.7717C759.3 97.5756 758.795 94.1122 760.628 91.6515H760.634Z" fill="#00BFC4"/>
<path d="M778.793 137.328C781.758 133.834 781.469 130.266 778.486 127.732C775.502 125.197 771.928 125.486 768.963 128.974L757.133 142.896L749.277 136.221L771.061 110.587L778.916 117.262L776.025 120.663C779.421 119.833 783.469 120.663 786.914 123.585C792.838 128.624 793.354 136.024 787.498 142.914L774.77 157.887L766.964 151.25L778.793 137.328Z" fill="#00BFC4"/>
<path d="M813.531 148.284C819.4 154.35 820.218 161.861 815.672 168.696L808.038 160.815C809.139 158.576 809.047 156.312 807.078 154.276C804.519 151.637 800.68 151.828 796.651 155.728C792.621 159.628 792.308 163.46 794.861 166.1C796.829 168.136 798.958 168.339 801.363 167.268L808.997 175.149C802.194 179.301 794.535 178.409 788.666 172.35C781.788 165.244 781.69 155.611 789.355 148.186C796.977 140.804 806.647 141.173 813.525 148.278L813.531 148.284Z" fill="#00BFC4"/>
<path d="M812.551 198.329C806.153 190.787 806.608 181.073 814.747 174.171C822.886 167.269 832.464 168.308 838.942 175.943C845.296 183.435 844.817 192.934 837.004 199.565C836.266 200.186 835.448 200.808 834.586 201.38L819.49 183.589C816.365 186.714 816.562 190.11 818.703 192.638C820.573 194.847 822.732 195.148 824.657 194.625L831.757 202.992C825.691 206 817.971 204.726 812.551 198.335V198.329ZM823.901 179.923L832.249 189.759C835.054 187.379 834.789 183.811 832.569 181.19C830.385 178.612 827.143 177.966 823.901 179.923Z" fill="#00BFC4"/>
<path d="M839.486 218.027C851.119 221.416 863.047 225.341 869.181 221.176C871.826 219.38 872.706 217.03 870.946 214.44C869.218 211.899 866.209 211.758 862.764 214.096L857.173 205.871C866.166 200.125 873.856 203.281 878.359 209.912C883.982 218.193 881.656 225.169 875.523 229.333C867.544 234.753 856.317 231.96 847.951 229.192L857.099 242.652L850.166 247.364L833.156 222.333L839.486 218.027Z" fill="#00BFC4"/>
<path d="M898.708 242.762C904.89 253.675 898.88 262.14 887.653 268.501C876.322 274.923 865.968 275.729 859.786 264.822C853.603 253.915 859.613 245.444 870.945 239.022C882.172 232.661 892.525 231.849 898.708 242.762ZM890.317 247.517C887.315 242.221 881.815 244.503 875.94 247.831C869.856 251.282 865.175 254.764 868.177 260.061C871.179 265.357 876.574 263.137 882.658 259.686C888.533 256.357 893.319 252.814 890.317 247.517Z" fill="#00BFC4"/>
<path d="M902.781 272.936L900.198 267.553L908.841 263.407L916.063 278.467L876.384 297.494L871.746 287.817L902.788 272.93L902.781 272.936Z" fill="#00BFC4"/>
<path d="M895.076 308.161C892.443 309.865 891.527 312.117 892.72 315.082C894.332 319.111 898.312 319.142 906.088 316.023C903.141 315.322 900.588 312.837 899.198 309.367C896.393 302.373 898.607 295.249 907.281 291.773C915.562 288.451 923.091 291.675 926.567 300.349C931.23 311.988 924.642 318.398 912.215 323.375C898.281 328.96 889.257 328.806 884.858 317.838C881.29 308.943 885.443 302.274 891.533 299.315L895.076 308.155V308.161ZM915.008 311.539C918.644 310.081 919.751 307.171 918.453 303.923C917.13 300.619 914.196 299.457 910.782 300.828C907.706 302.059 906.125 304.772 907.632 308.524C908.887 311.656 911.711 312.867 915.014 311.545L915.008 311.539Z" fill="#00BFC4"/>
<path d="M910.493 350.147C909.435 346.628 911.09 343.546 914.03 342.66C917.088 341.737 920.169 343.392 921.228 346.917C922.267 350.381 920.612 353.463 917.555 354.379C914.608 355.265 911.533 353.61 910.493 350.147Z" fill="#00BFC4"/>
<path d="M953.32 397.379L944.462 399.188L940.703 380.757L932.552 382.418C934.576 383.606 936.422 386.306 937.117 389.733C939.03 399.126 932.62 404.183 925.65 405.604C916.552 407.462 909.563 403.346 907.613 393.78C905.639 384.091 909.871 377.386 917.241 375.51L919.252 385.377C917.093 386.251 915.432 388.373 916.109 391.677C916.89 395.515 920.003 396.604 923.725 395.847C927.625 395.054 929.292 392.679 928.56 389.081C927.982 386.245 926.111 384.904 923.989 384.78L922.002 375.036L947.698 369.795L953.32 397.379Z" fill="#174483"/>
<path d="M921.423 432.026L919.122 411.903L927.39 410.956L956.623 426.791L957.927 438.233L931.45 441.259L932.01 446.168L923.146 447.184L922.586 442.274L914.798 443.166L913.629 432.924L921.417 432.032L921.423 432.026ZM930.368 431.73L945.581 429.989L929.217 421.666L930.368 431.73Z" fill="#174483"/>
<path d="M958.839 465.178L958.611 477.352L929.095 488.671L958.168 500.974L957.94 513.087L915.629 512.287L915.826 501.983L941.202 502.463L916.004 492.522L916.158 484.205L941.774 475.162L916.336 474.682L916.533 464.378L958.845 465.178H958.839Z" fill="#174483"/>
<path d="M957.057 520.45L953.206 552.956L945.006 551.984L946.328 540.85L912.5 536.839L913.712 526.602L947.54 530.613L948.863 519.479L957.063 520.45H957.057Z" fill="#174483"/>
<path d="M945.651 592.481C943.308 602.275 936.024 608.34 926.55 608.55L929.189 597.526C933.114 596.671 935.618 593.982 936.535 590.168C938.011 584.01 934.449 578.695 927.178 576.954C919.907 575.213 914.321 578.339 912.85 584.496C911.94 588.304 912.949 591.835 916.062 594.382L913.423 605.406C905.075 600.928 901.39 592.229 903.74 582.442C906.65 570.304 917.317 563.808 929.632 566.761C941.948 569.714 948.573 580.35 945.664 592.488L945.651 592.481Z" fill="#174483"/>
<path d="M891.072 624.9C895.046 613.581 906.759 607.343 918.761 611.557C930.763 615.771 935.949 627.946 931.969 639.265C927.976 650.639 916.38 656.729 904.378 652.515C892.376 648.302 887.098 636.226 891.072 624.9ZM899.943 628.019C897.704 634.393 900.853 640.163 907.854 642.617C914.965 645.115 920.914 642.537 923.153 636.17C925.429 629.687 922.378 624.015 915.267 621.517C908.272 619.062 902.225 621.535 899.949 628.026L899.943 628.019Z" fill="#174483"/>
<path d="M877.251 644.5C879.189 651.292 880.96 658.397 884.922 660.125C886.626 660.87 888.059 660.581 888.791 658.901C889.511 657.259 888.644 655.727 886.423 654.755L888.748 649.44C894.377 652.091 895.208 656.865 893.337 661.153C891 666.499 886.835 667.514 882.873 665.785C877.718 663.534 875.614 657.123 874.378 652.134L870.576 660.833L866.098 658.877L873.166 642.71L877.257 644.5H877.251Z" fill="#174483"/>
<path d="M867.47 679.577C871.992 670.786 881.145 667.495 890.631 672.373C900.117 677.257 902.818 686.51 898.241 695.405C893.744 704.14 884.781 707.327 875.67 702.639C874.815 702.196 873.929 701.674 873.074 701.101L883.747 680.358C879.669 678.666 876.605 680.143 875.086 683.089C873.763 685.661 874.305 687.771 875.529 689.352L870.509 699.108C865.409 694.654 863.638 687.032 867.47 679.577ZM888.81 683.028L882.911 694.501C886.184 696.18 889.382 694.574 890.951 691.517C892.495 688.515 891.862 685.273 888.81 683.028Z" fill="#174483"/>
<path d="M843.953 719.784C848.887 712.279 856.379 709.991 862.088 713.165L856.49 721.679C854.392 720.59 851.926 721.488 850.369 723.857C848.911 726.071 849.157 727.892 850.418 728.723C854.952 731.706 861.75 714.241 872.072 721.027C876.858 724.176 878.101 730.839 873.266 738.19C868.498 745.443 861.817 746.821 855.912 743.733L861.147 735.772C863.226 736.781 865.447 736.148 867.034 733.73C868.357 731.712 868.283 730.076 866.923 729.184C862.439 726.237 855.61 743.536 845.036 736.794C840.151 733.582 839.321 726.828 843.959 719.778L843.953 719.784Z" fill="#00BFC4"/>
<path d="M860.672 755.624L854.526 763.905L827.508 743.862L833.653 735.582L860.672 755.624ZM868.509 760.238C871.025 762.108 871.535 765.566 869.345 768.518C867.192 771.422 863.735 771.933 861.213 770.069C858.746 768.235 858.229 764.778 860.389 761.874C862.579 758.922 866.036 758.411 868.509 760.238Z" fill="#00BFC4"/>
<path d="M822.866 778.509C826.366 781.468 829.934 781.173 832.463 778.183C834.997 775.193 834.696 771.625 831.202 768.66L817.256 756.861L823.918 748.993L849.601 770.727L842.939 778.595L839.531 775.716C840.368 779.112 839.549 783.16 836.633 786.611C831.608 792.547 824.207 793.076 817.305 787.238L802.301 774.541L808.92 766.716L822.866 778.515V778.509Z" fill="#00BFC4"/>
<path d="M811.959 813.297C805.893 819.165 798.376 819.984 791.547 815.438L799.428 807.803C801.667 808.904 803.931 808.812 805.967 806.844C808.606 804.284 808.415 800.446 804.515 796.416C800.615 792.387 796.782 792.073 794.143 794.626C792.107 796.595 791.904 798.723 792.975 801.129L785.094 808.763C780.942 801.959 781.834 794.3 787.893 788.432C794.998 781.554 804.632 781.456 812.057 789.121C819.439 796.743 819.07 806.413 811.965 813.291L811.959 813.297Z" fill="#00BFC4"/>
<path d="M761.919 812.411C769.443 806.001 779.162 806.431 786.083 814.558C793.004 822.684 791.983 832.262 784.361 838.752C776.88 845.126 767.382 844.664 760.732 836.864C760.104 836.132 759.489 835.308 758.917 834.452L776.677 819.319C773.546 816.206 770.156 816.403 767.628 818.55C765.426 820.427 765.124 822.586 765.653 824.505L757.299 831.623C754.279 825.563 755.534 817.837 761.913 812.405L761.919 812.411ZM780.344 823.718L770.525 832.084C772.912 834.883 776.48 834.612 779.095 832.385C781.666 830.195 782.306 826.954 780.344 823.718Z" fill="#00BFC4"/>
<path d="M742.282 839.386C738.917 851.025 735.017 862.959 739.2 869.08C741.002 871.719 743.352 872.593 745.942 870.827C748.483 869.093 748.618 866.084 746.268 862.646L754.481 857.035C760.251 866.017 757.107 873.713 750.482 878.228C742.214 883.869 735.238 881.556 731.055 875.435C725.617 867.469 728.385 856.236 731.135 847.863L717.693 857.041L712.969 850.121L737.963 833.056L742.282 839.38V839.386Z" fill="#00BFC4"/>
<path d="M717.676 898.652C706.782 904.859 698.299 898.861 691.919 887.653C685.478 876.34 684.648 865.986 695.543 859.779C706.437 853.572 714.914 859.57 721.361 870.883C727.747 882.092 728.577 892.445 717.676 898.646V898.652ZM712.903 890.273C718.193 887.259 715.899 881.766 712.558 875.903C709.101 869.825 705.607 865.156 700.316 868.17C695.026 871.185 697.259 876.574 700.722 882.645C704.063 888.514 707.618 893.288 712.909 890.273H712.903Z" fill="#00BFC4"/>
<path d="M687.527 902.786L692.904 900.196L697.068 908.833L682.027 916.086L662.914 876.444L672.578 871.781L687.527 902.786Z" fill="#00BFC4"/>
<path d="M652.261 895.164C650.55 892.537 648.299 891.626 645.334 892.82C641.311 894.444 641.286 898.418 644.417 906.188C645.112 903.241 647.591 900.682 651.061 899.285C658.049 896.468 665.179 898.664 668.673 907.332C672.008 915.606 668.809 923.142 660.141 926.636C648.508 931.324 642.086 924.747 637.084 912.333C631.468 898.412 631.603 889.387 642.559 884.964C651.449 881.378 658.123 885.512 661.094 891.596L652.261 895.158V895.164ZM648.926 915.101C650.39 918.737 653.306 919.838 656.548 918.528C659.846 917.199 661.002 914.259 659.63 910.851C658.388 907.775 655.675 906.206 651.928 907.713C648.797 908.974 647.598 911.798 648.926 915.101Z" fill="#00BFC4"/>
<path d="M610.295 910.672C613.814 909.608 616.896 911.257 617.788 914.197C618.717 917.255 617.068 920.337 613.543 921.401C610.08 922.453 606.998 920.798 606.075 917.741C605.183 914.8 606.832 911.718 610.295 910.666V910.672Z" fill="#00BFC4"/>
<path d="M563.199 953.592L561.372 944.734L579.796 940.938L578.117 932.787C576.936 934.817 574.241 936.663 570.815 937.37C561.427 939.308 556.352 932.904 554.913 925.94C553.036 916.848 557.133 909.847 566.699 907.873C576.382 905.873 583.1 910.093 584.988 917.457L575.127 919.493C574.254 917.334 572.125 915.679 568.822 916.362C564.983 917.155 563.9 920.268 564.669 923.99C565.475 927.884 567.85 929.551 571.449 928.807C574.284 928.222 575.619 926.346 575.736 924.23L585.481 922.218L590.777 947.902L563.205 953.586L563.199 953.592Z" fill="#174483"/>
<path d="M528.46 921.77L548.576 919.426L549.536 927.688L533.769 956.958L522.333 958.293L519.251 931.828L514.342 932.4L513.309 923.536L518.218 922.964L517.313 915.182L527.55 913.988L528.454 921.77H528.46ZM528.774 930.715L530.546 945.922L538.832 929.54L528.774 930.715Z" fill="#174483"/>
<path d="M495.383 959.264L483.209 959.061L471.828 929.564L459.58 958.661L447.461 958.458L448.175 916.141L458.485 916.313L458.06 941.689L467.952 916.467L476.269 916.608L485.368 942.205L485.798 916.768L496.109 916.94L495.395 959.258L495.383 959.264Z" fill="#174483"/>
<path d="M440.129 957.591L407.617 953.802L408.571 945.602L419.705 946.9L423.649 913.071L433.885 914.265L429.942 948.099L441.076 949.397L440.123 957.597L440.129 957.591Z" fill="#174483"/>
<path d="M368.062 946.334C358.269 944.008 352.185 936.737 351.957 927.264L362.987 929.884C363.854 933.809 366.543 936.307 370.357 937.211C376.515 938.675 381.824 935.101 383.552 927.83C385.281 920.558 382.143 914.979 375.986 913.514C372.172 912.61 368.647 913.631 366.112 916.744L355.082 914.123C359.548 905.763 368.234 902.066 378.028 904.392C390.171 907.277 396.686 917.931 393.764 930.247C390.836 942.563 380.212 949.213 368.068 946.328L368.062 946.334Z" fill="#174483"/>
<path d="M335.531 891.835C346.856 895.785 353.119 907.485 348.936 919.494C344.752 931.502 332.584 936.712 321.259 932.763C309.872 928.789 303.764 917.211 307.953 905.203C312.142 893.195 324.206 887.886 335.537 891.842L335.531 891.835ZM332.437 900.712C326.063 898.492 320.299 901.647 317.857 908.654C315.378 915.772 317.962 921.714 324.335 923.941C330.825 926.205 336.491 923.135 338.97 916.024C341.412 909.023 338.921 902.982 332.43 900.719L332.437 900.712Z" fill="#174483"/>
<path d="M315.906 878.05C309.115 880.006 302.022 881.79 300.299 885.752C299.555 887.462 299.856 888.889 301.53 889.621C303.172 890.335 304.704 889.468 305.67 887.241L310.991 889.554C308.352 895.189 303.578 896.032 299.29 894.168C293.938 891.842 292.911 887.677 294.634 883.716C296.873 878.561 303.277 876.432 308.26 875.19L299.555 871.406L301.505 866.928L317.684 873.959L315.906 878.056V878.05Z" fill="#174483"/>
<path d="M280.791 868.336C289.595 872.839 292.904 881.987 288.044 891.485C283.184 900.984 273.938 903.703 265.031 899.144C256.283 894.666 253.078 885.715 257.747 876.592C258.184 875.731 258.707 874.851 259.279 873.99L280.047 884.62C281.733 880.535 280.25 877.478 277.297 875.964C274.72 874.648 272.616 875.196 271.041 876.42L261.272 871.418C265.714 866.313 273.336 864.522 280.791 868.343V868.336ZM277.383 889.683L265.898 883.808C264.225 887.081 265.837 890.28 268.894 891.842C271.896 893.38 275.138 892.734 277.377 889.683H277.383Z" fill="#174483"/>
<path d="M240.543 844.917C248.06 849.838 250.361 857.325 247.199 863.033L238.672 857.454C239.755 855.356 238.851 852.889 236.482 851.333C234.262 849.881 232.441 850.127 231.616 851.388C228.645 855.928 246.128 862.683 239.355 873.024C236.218 877.816 229.556 879.077 222.192 874.254C214.927 869.499 213.53 862.824 216.612 856.912L224.585 862.129C223.582 864.208 224.222 866.429 226.64 868.016C228.657 869.339 230.294 869.259 231.186 867.893C234.126 863.402 216.809 856.611 223.527 846.018C226.732 841.127 233.474 840.278 240.543 844.904V844.917Z" fill="#00BFC4"/>
<path d="M200.133 869.548C198.269 872.07 194.812 872.587 191.853 870.403C188.943 868.256 188.426 864.799 190.284 862.277C192.111 859.804 195.568 859.287 198.478 861.434C201.437 863.618 201.954 867.075 200.127 869.548H200.133ZM204.728 861.698L196.436 855.571L216.423 828.51L224.715 834.637L204.728 861.698Z" fill="#00BFC4"/>
<path d="M181.763 823.939C178.81 827.445 179.118 831.007 182.114 833.535C185.11 836.064 188.678 835.756 191.631 832.25L203.399 818.279L211.279 824.923L189.607 850.643L181.726 844L184.599 840.591C181.203 841.44 177.162 840.628 173.704 837.712C167.756 832.705 167.214 825.304 173.04 818.39L185.7 803.361L193.538 809.962L181.769 823.933L181.763 823.939Z" fill="#00BFC4"/>
<path d="M147.231 813.395C141.165 807.526 140.107 800.039 144.432 793.063L152.312 800.697C151.285 802.974 151.445 805.231 153.481 807.2C156.12 809.759 159.952 809.439 163.852 805.41C167.753 801.38 167.943 797.542 165.304 794.983C163.268 793.014 161.133 792.879 158.765 794.023L150.885 786.389C157.547 782.015 165.237 782.661 171.296 788.529C178.401 795.407 178.807 805.034 171.388 812.699C164.006 820.321 154.33 820.266 147.224 813.388L147.231 813.395Z" fill="#00BFC4"/>
<path d="M147.752 763.074C154.18 770.585 153.762 780.305 145.654 787.238C137.546 794.177 127.962 793.174 121.453 785.571C115.068 778.103 115.504 768.604 123.292 761.942C124.025 761.315 124.843 760.693 125.698 760.121L140.862 777.85C143.968 774.713 143.765 771.323 141.606 768.801C139.724 766.605 137.564 766.304 135.645 766.839L128.515 758.503C134.569 755.47 142.295 756.713 147.739 763.08L147.752 763.074ZM136.482 781.523L128.097 771.723C125.304 774.116 125.581 777.684 127.814 780.293C130.01 782.858 133.252 783.498 136.482 781.523Z" fill="#00BFC4"/>
<path d="M120.73 743.499C109.079 740.158 97.1385 736.289 91.0237 740.478C88.3907 742.287 87.5172 744.637 89.2889 747.221C91.0298 749.755 94.038 749.884 97.4707 747.528L103.099 755.728C94.1303 761.517 86.4283 758.392 81.8945 751.779C76.235 743.523 78.5295 736.541 84.6443 732.346C92.5985 726.889 103.838 729.633 112.216 732.364L103.007 718.941L109.916 714.198L127.036 739.156L120.724 743.487L120.73 743.499Z" fill="#00BFC4"/>
<path d="M61.4121 719.015C55.1866 708.133 61.1599 699.643 72.356 693.233C83.6567 686.768 94.0039 685.913 100.236 696.795C106.461 707.677 100.488 716.167 89.1871 722.638C77.991 729.048 67.6438 729.897 61.4121 719.015ZM69.7846 714.223C72.8112 719.507 78.2986 717.2 84.155 713.848C90.2267 710.372 94.8897 706.872 91.8631 701.587C88.8364 696.303 83.4537 698.548 77.3881 702.024C71.5255 705.377 66.7579 708.939 69.7846 714.223Z" fill="#00BFC4"/>
<path d="M57.2046 688.866L59.8068 694.236L51.1821 698.42L43.8984 683.391L83.497 664.191L88.1785 673.85L57.2046 688.866Z" fill="#00BFC4"/>
<path d="M64.7657 653.599C67.3863 651.882 68.2968 649.631 67.0911 646.672C65.4609 642.649 61.4869 642.636 53.7234 645.786C56.6701 646.475 59.2353 648.948 60.6379 652.411C63.4677 659.394 61.29 666.523 52.6284 670.036C44.3605 673.389 36.8246 670.202 33.312 661.547C28.5998 649.926 35.1637 643.491 47.5594 638.459C61.4684 632.818 70.493 632.929 74.9345 643.879C78.5394 652.762 74.4178 659.443 68.3399 662.426L64.7596 653.599H64.7657ZM44.8219 650.301C41.1923 651.772 40.0973 654.687 41.4138 657.929C42.7487 661.227 45.6893 662.377 49.0973 660.993C52.167 659.744 53.7357 657.031 52.2162 653.285C50.949 650.16 48.1192 648.96 44.8219 650.301Z" fill="#00BFC4"/>
<path d="M49.1531 611.668C50.2297 615.187 48.5872 618.269 45.6467 619.167C42.5893 620.102 39.5073 618.459 38.4307 614.941C37.3726 611.483 39.0151 608.395 42.0725 607.46C45.013 606.562 48.1012 608.204 49.1531 611.662V611.668Z" fill="#00BFC4"/>
<path d="M6.13281 564.644L14.9851 562.798L18.8238 581.217L26.9687 579.519C24.9386 578.338 23.0808 575.649 22.3672 572.223C20.4109 562.835 26.8026 557.748 33.7663 556.296C42.8585 554.401 49.8653 558.486 51.8585 568.046C53.8763 577.729 49.6746 584.452 42.311 586.353L40.2564 576.498C42.4156 575.619 44.0643 573.49 43.3753 570.18C42.5756 566.342 39.4566 565.271 35.741 566.047C31.847 566.859 30.186 569.233 30.9365 572.838C31.5271 575.674 33.4034 577.003 35.5257 577.12L37.5558 586.858L11.8785 592.21L6.13896 564.644H6.13281Z" fill="#174483"/>
<path d="M37.8882 529.838L40.2751 549.954L32.0134 550.932L2.71275 535.221L1.35938 523.785L27.824 520.648L27.2396 515.738L36.0981 514.687L36.6825 519.596L44.4644 518.673L45.6763 528.909L37.8944 529.832L37.8882 529.838ZM28.9437 530.17L13.7366 531.973L30.1371 540.228L28.9437 530.17Z" fill="#174483"/>
<path d="M0.324219 496.84L0.502618 484.666L29.9755 473.223L0.853266 461.037L1.03167 448.918L43.3493 449.545L43.1955 459.856L17.8197 459.48L43.0602 469.323L42.9371 477.64L17.3583 486.788L42.7956 487.163L42.6419 497.473L0.324219 496.846V496.84Z" fill="#174483"/>
<path d="M1.87891 441.592L5.59454 409.067L13.8009 410.002L12.5275 421.143L46.3681 425.013L45.1993 435.255L11.3587 431.392L10.0853 442.533L1.87891 441.598V441.592Z" fill="#174483"/>
<path d="M12.9838 369.5C15.2907 359.7 22.5436 353.604 32.0172 353.352L29.4212 364.382C25.4964 365.255 23.005 367.95 22.1068 371.764C20.655 377.928 24.2415 383.23 31.5189 384.941C38.7964 386.651 44.3699 383.507 45.8155 377.343C46.7137 373.529 45.6863 370.004 42.5613 367.476L45.1573 356.44C53.5236 360.887 57.2454 369.567 54.9385 379.367C52.078 391.517 41.4355 398.056 29.1136 395.152C16.7917 392.255 10.1171 381.643 12.9777 369.494L12.9838 369.5Z" fill="#174483"/>
<path d="M67.4218 336.84C63.497 348.178 51.8087 354.465 39.7883 350.3C27.7678 346.135 22.5327 333.986 26.4575 322.648C30.4069 311.255 41.9721 305.116 53.9926 309.28C66.013 313.445 71.3466 325.496 67.4156 336.834L67.4218 336.84ZM58.5325 333.764C60.741 327.385 57.5667 321.627 50.5599 319.197C43.4362 316.73 37.4998 319.332 35.2852 325.711C33.0337 332.208 36.1157 337.867 43.2394 340.334C50.2462 342.758 56.281 340.26 58.5325 333.764Z" fill="#174483"/>
<path d="M81.1607 317.192C79.1921 310.406 77.3958 303.313 73.428 301.597C71.7178 300.859 70.2845 301.16 69.5585 302.833C68.845 304.476 69.7185 306.002 71.9454 306.967L69.6447 312.289C64.0036 309.662 63.1546 304.888 65.0063 300.6C67.3193 295.242 71.484 294.209 75.4519 295.925C80.6132 298.158 82.7478 304.556 84.0028 309.539L87.7676 300.828L92.2522 302.766L85.2516 318.963L81.1545 317.192H81.1607Z" fill="#174483"/>
<path d="M90.7969 282.059C86.3123 290.868 77.1709 294.202 67.6603 289.361C58.1498 284.52 55.4122 275.28 59.9522 266.36C64.4122 257.6 73.3568 254.376 82.4921 259.027C83.3533 259.464 84.2392 259.981 85.0943 260.559L74.5072 281.352C78.5919 283.025 81.6493 281.536 83.1565 278.583C84.4668 276.006 83.9193 273.896 82.6889 272.327L87.6657 262.546C92.7839 266.981 94.5864 274.597 90.7846 282.065L90.7969 282.059ZM69.4382 278.694L75.2946 267.196C72.0157 265.529 68.823 267.147 67.2666 270.211C65.7348 273.219 66.3869 276.461 69.4443 278.694H69.4382Z" fill="#174483"/>
<path d="M114.135 241.759C109.232 249.283 101.746 251.602 96.0307 248.452L101.592 239.914C103.696 240.997 106.156 240.08 107.707 237.712C109.152 235.491 108.9 233.67 107.639 232.846C103.093 229.887 96.3691 247.376 86.0157 240.634C81.2174 237.509 79.944 230.846 84.7485 223.477C89.4853 216.205 96.1599 214.796 102.078 217.86L96.8797 225.839C94.7942 224.842 92.5796 225.482 90.9986 227.906C89.6822 229.924 89.7683 231.566 91.1278 232.452C95.6247 235.38 102.379 218.051 112.985 224.75C117.882 227.943 118.743 234.691 114.135 241.759Z" fill="#00BFC4"/>
<path d="M89.414 201.405C86.8918 199.547 86.3627 196.089 88.5404 193.13C90.6812 190.215 94.1385 189.692 96.6668 191.549C99.146 193.37 99.6689 196.828 97.5281 199.744C95.3504 202.709 91.8931 203.232 89.414 201.411V201.405ZM97.2697 205.988L103.378 197.683L130.477 217.614L124.368 225.919L97.2697 205.988Z" fill="#00BFC4"/>
<path d="M134.981 182.943C131.469 179.996 127.907 180.31 125.385 183.312C122.869 186.314 123.176 189.882 126.689 192.829L140.684 204.572L134.059 212.471L108.289 190.848L114.914 182.949L118.335 185.816C117.48 182.426 118.286 178.372 121.189 174.909C126.191 168.954 133.585 168.388 140.512 174.201L155.565 186.831L148.976 194.68L134.981 182.937V182.943Z" fill="#00BFC4"/>
<path d="M145.492 148.352C151.36 142.286 158.847 141.228 165.823 145.553L158.189 153.433C155.913 152.406 153.655 152.566 151.686 154.602C149.127 157.241 149.447 161.073 153.477 164.974C157.506 168.874 161.345 169.064 163.904 166.425C165.872 164.389 166.008 162.255 164.863 159.886L172.498 152.006C176.872 158.668 176.226 166.358 170.357 172.417C163.479 179.522 153.852 179.935 146.187 172.509C138.565 165.127 138.62 155.451 145.498 148.346L145.492 148.352Z" fill="#00BFC4"/>
<path d="M195.782 148.789C188.283 155.229 178.57 154.836 171.612 146.746C164.655 138.657 165.639 129.066 173.23 122.545C180.686 116.141 190.184 116.56 196.865 124.336C197.492 125.068 198.114 125.886 198.692 126.741L181 141.942C184.143 145.042 187.533 144.833 190.049 142.668C192.245 140.779 192.534 138.626 191.999 136.701L200.322 129.552C203.367 135.599 202.143 143.326 195.788 148.789H195.782ZM177.309 137.556L187.096 129.146C184.697 126.359 181.129 126.642 178.527 128.882C175.968 131.084 175.334 134.326 177.315 137.556H177.309Z" fill="#00BFC4"/>
<path d="M215.302 121.733C218.617 110.076 222.468 98.1293 218.261 92.0207C216.446 89.3877 214.096 88.5204 211.512 90.2982C208.978 92.0453 208.861 95.0535 211.217 98.48L203.023 104.121C197.216 95.1642 200.328 87.4561 206.929 82.9038C215.172 77.2258 222.161 79.5081 226.369 85.6167C231.844 93.5586 229.118 104.804 226.405 113.195L239.81 103.961L244.565 110.863L219.645 128.033L215.302 121.727V121.733Z" fill="#00BFC4"/>
<path d="M239.647 62.3697C250.517 56.1195 259.019 62.0744 265.454 73.2582C271.944 84.5466 272.817 94.8938 261.953 101.144C251.09 107.394 242.582 101.439 236.092 90.1508C229.657 78.967 228.783 68.6198 239.653 62.3697H239.647ZM244.458 70.7298C239.18 73.7626 241.499 79.25 244.864 85.1002C248.352 91.1597 251.865 95.8165 257.143 92.7837C262.421 89.7448 260.163 84.3682 256.675 78.3087C253.31 72.4585 249.736 67.697 244.458 70.7298Z" fill="#00BFC4"/>
<path d="M269.792 58.0939L264.428 60.7083L260.227 52.0898L275.237 44.7754L294.516 84.3371L284.87 89.037L269.786 58.0939H269.792Z" fill="#00BFC4"/>
<path d="M305.079 65.5741C306.802 68.1948 309.053 69.0929 312.012 67.8872C316.029 66.2447 316.035 62.2707 312.867 54.5134C312.184 57.46 309.718 60.0315 306.254 61.4463C299.278 64.2946 292.142 62.1292 288.611 53.4737C285.24 45.212 288.408 37.67 297.064 34.1389C308.672 29.4021 315.125 35.9475 320.182 48.337C325.854 62.2338 325.761 71.2583 314.824 75.7245C305.947 79.3478 299.26 75.2385 296.264 69.1729L305.079 65.5741ZM308.333 45.6241C306.851 41.9946 303.935 40.9058 300.699 42.2284C297.408 43.5695 296.264 46.5161 297.654 49.918C298.909 52.9877 301.628 54.5441 305.368 53.0185C308.493 51.7451 309.681 48.9153 308.34 45.618L308.333 45.6241Z" fill="#00BFC4"/>
<path d="M346.969 49.8874C343.456 50.9701 340.362 49.3338 339.457 46.3933C338.516 43.342 340.153 40.2477 343.671 39.165C347.129 38.1007 350.217 39.7371 351.158 42.7883C352.062 45.7289 350.426 48.817 346.969 49.8813V49.8874Z" fill="#00BFC4"/>
</svg>
